<svg aria-hidden="true" style="position: absolute; width: 0; height: 0; overflow: hidden;" version="1.1" xmlns="http://www.w3.org/2000/svg" xmlns:xlink="http://www.w3.org/1999/xlink">
<defs>
<symbol id="icon-star-empty" viewBox="0 0 34 32">
<path stroke-linejoin="miter" stroke-linecap="butt" stroke-miterlimit="4" stroke-width="3.3684" d="M16.855 1.686l3.416 8.115c0.492 1.167 1.596 1.952 2.849 2.051l8.855 0.701-6.732 5.696c-0.964 0.816-1.392 2.107-1.094 3.342l2.059 8.531c-0.003 0.002-0.004 0.004-0.007 0.005-0.003-0.001-0.007-0.003-0.013-0.007l-7.594-4.582c-1.077-0.65-2.429-0.65-3.507 0l-7.594 4.582c-0.006 0.003-0.010 0.005-0.013 0.007-0.003-0.001-0.005-0.003-0.008-0.005l2.061-8.531c0.28-1.157-0.079-2.363-0.919-3.182l-0.174-0.16-6.734-5.696 8.857-0.701c1.253-0.099 2.357-0.884 2.849-2.051l3.414-8.115c0.004-0.001 0.009-0.002 0.015-0.002s0.009 0.001 0.013 0.002z"></path>
</symbol>
<symbol id="icon-star-full" viewBox="0 0 34 32">
<path d="M15.277 1.031c0.579-1.375 2.551-1.375 3.13 0l3.417 8.116c0.244 0.58 0.796 0.976 1.43 1.026l8.869 0.702c1.503 0.119 2.112 1.972 0.967 2.941l-6.757 5.718c-0.483 0.408-0.694 1.049-0.546 1.66l2.064 8.55c0.35 1.449-1.245 2.594-2.532 1.817l-7.593-4.582c-0.542-0.327-1.224-0.327-1.767 0l-7.593 4.582c-1.287 0.776-2.882-0.369-2.532-1.817l2.064-8.55c0.147-0.611-0.063-1.252-0.546-1.66l-6.757-5.718c-1.145-0.969-0.536-2.822 0.967-2.941l8.869-0.702c0.633-0.050 1.185-0.446 1.429-1.026l3.417-8.116z"></path>
</symbol>
<symbol id="icon-star-half" viewBox="0 0 34 32">
<path stroke-linejoin="miter" stroke-linecap="butt" stroke-miterlimit="4" stroke-width="1.6842" d="M16.053 1.359c0.29-0.688 1.289-0.688 1.579 0l3.416 8.115c0.368 0.873 1.197 1.465 2.14 1.539l8.868 0.702c0.771 0.061 1.046 0.986 0.49 1.457l-6.758 5.719c-0.724 0.612-1.044 1.579-0.821 2.502l2.066 8.549c0.167 0.694-0.609 1.303-1.28 0.898h-0.002l-7.59-4.581c-0.81-0.489-1.828-0.489-2.638 0l-7.592 4.581c-0.671 0.405-1.447-0.204-1.28-0.898l2.066-8.549c0.223-0.923-0.097-1.889-0.821-2.502l-6.758-5.719c-0.556-0.472-0.281-1.396 0.49-1.457l8.868-0.702c0.943-0.075 1.772-0.666 2.14-1.539l3.416-8.115z"></path>
</symbol>
<symbol id="icon-burger-menu" viewBox="0 0 47 32">
<path d="M2.097 30.628c-0.592 0-1.089-0.203-1.492-0.608s-0.604-0.91-0.604-1.514c0-0.595 0.201-1.091 0.604-1.489s0.9-0.596 1.492-0.596h40.85c0.592 0 1.092 0.203 1.5 0.608s0.612 0.905 0.612 1.5c0 0.605-0.204 1.106-0.612 1.503s-0.908 0.597-1.5 0.597h-40.85zM2.097 17.41c-0.592 0-1.089-0.203-1.492-0.608s-0.604-0.905-0.604-1.5c0-0.594 0.201-1.091 0.604-1.489s0.9-0.597 1.492-0.597h40.85c0.592 0 1.092 0.203 1.5 0.608s0.612 0.905 0.612 1.5c0 0.594-0.204 1.091-0.612 1.489s-0.908 0.597-1.5 0.597h-40.85zM2.097 4.207c-0.592 0-1.089-0.202-1.492-0.607s-0.604-0.91-0.604-1.514c0-0.595 0.201-1.091 0.604-1.489s0.9-0.597 1.492-0.597h40.85c0.592 0 1.092 0.202 1.5 0.607s0.612 0.905 0.612 1.5c0 0.605-0.204 1.106-0.612 1.504s-0.908 0.596-1.5 0.596h-40.85z"></path>
</symbol>
<symbol id="icon-close-btn" viewBox="0 0 32 32">
<path stroke-linejoin="miter" stroke-linecap="butt" stroke-miterlimit="4" stroke-width="2.2857" d="M27.828 1.143c0.376 0 0.609 0.111 0.792 0.295s0.294 0.416 0.295 0.79c0 0.375-0.111 0.609-0.295 0.792l-12.009 12.009 12.009 12.007c0.184 0.184 0.295 0.417 0.295 0.792s-0.111 0.609-0.295 0.792-0.417 0.295-0.792 0.295c-0.375 0-0.609-0.111-0.792-0.295l-12.007-12.009-12.009 12.009c-0.184 0.184-0.417 0.295-0.792 0.295s-0.607-0.111-0.79-0.295c-0.184-0.184-0.295-0.417-0.295-0.792s0.111-0.609 0.295-0.792l12.007-12.007-12.007-12.009c-0.184-0.184-0.295-0.417-0.295-0.792s0.111-0.607 0.295-0.79 0.415-0.294 0.79-0.295c0.375 0 0.609 0.111 0.792 0.295l12.009 12.007 12.007-12.007c0.184-0.184 0.417-0.295 0.792-0.295z"></path>
</symbol>
<symbol id="icon-facebook" viewBox="0 0 32 32">
<path d="M31.605 15.899c0-8.781-7.075-15.899-15.803-15.899s-15.802 7.118-15.802 15.899c0 7.936 5.779 14.513 13.333 15.706v-11.11h-4.012v-4.596h4.012v-3.503c0-3.985 2.359-6.186 5.969-6.186 1.729 0 3.537 0.311 3.537 0.311v3.913h-1.993c-1.963 0-2.575 1.226-2.575 2.483v2.982h4.383l-0.7 4.596h-3.682v11.11c7.555-1.193 13.333-7.77 13.333-15.706z"></path>
</symbol>
<symbol id="icon-instagram" viewBox="0 0 32 32">
<path d="M15.998 2.882c4.274 0 4.78 0.019 6.461 0.094 1.563 0.069 2.406 0.331 2.969 0.55 0.744 0.288 1.281 0.638 1.837 1.194 0.563 0.563 0.906 1.094 1.2 1.838 0.219 0.563 0.481 1.412 0.55 2.969 0.075 1.688 0.094 2.194 0.094 6.462s-0.019 4.78-0.094 6.462c-0.069 1.563-0.331 2.406-0.55 2.969-0.288 0.744-0.637 1.281-1.194 1.837-0.563 0.563-1.094 0.906-1.837 1.2-0.563 0.219-1.413 0.481-2.969 0.55-1.688 0.075-2.194 0.094-6.462 0.094s-4.78-0.019-6.462-0.094c-1.563-0.069-2.406-0.331-2.969-0.55-0.744-0.288-1.281-0.637-1.838-1.194-0.563-0.563-0.906-1.094-1.2-1.837-0.219-0.563-0.481-1.413-0.55-2.969-0.075-1.688-0.094-2.194-0.094-6.462s0.019-4.78 0.094-6.462c0.069-1.563 0.331-2.406 0.55-2.969 0.288-0.744 0.638-1.281 1.194-1.838 0.563-0.563 1.094-0.906 1.838-1.2 0.563-0.219 1.412-0.481 2.969-0.55 1.681-0.075 2.189-0.094 6.463-0.094zM15.998 0.001c-4.343 0-4.886 0.019-6.593 0.094-1.7 0.075-2.869 0.35-3.88 0.744-1.056 0.412-1.95 0.956-2.837 1.85-0.894 0.888-1.438 1.781-1.85 2.831-0.394 1.019-0.669 2.181-0.744 3.88-0.075 1.713-0.094 2.256-0.094 6.599s0.019 4.886 0.094 6.593c0.075 1.7 0.35 2.869 0.744 3.881 0.413 1.056 0.956 1.95 1.85 2.837 0.887 0.887 1.781 1.438 2.831 1.844 1.019 0.394 2.181 0.669 3.88 0.744 1.706 0.075 2.25 0.094 6.593 0.094s4.887-0.019 6.593-0.094c1.7-0.075 2.869-0.35 3.881-0.744 1.050-0.406 1.944-0.956 2.831-1.844s1.438-1.781 1.844-2.831c0.394-1.019 0.669-2.181 0.744-3.881 0.075-1.706 0.094-2.25 0.094-6.593s-0.019-4.886-0.094-6.593c-0.075-1.7-0.35-2.869-0.744-3.88-0.394-1.063-0.938-1.956-1.831-2.844-0.887-0.887-1.781-1.438-2.831-1.844-1.019-0.394-2.181-0.669-3.881-0.744-1.712-0.081-2.256-0.1-6.599-0.1l-0.001 0.001z"></path>
<path d="M15.996 7.781c-4.536 0-8.218 3.681-8.218 8.218s3.681 8.218 8.218 8.218c4.537 0 8.218-3.681 8.218-8.218 0-4.536-3.681-8.218-8.218-8.218zM15.996 21.329c-2.944 0-5.33-2.387-5.33-5.33s2.387-5.33 5.33-5.33c2.944 0 5.33 2.387 5.33 5.33s-2.387 5.33-5.33 5.33z"></path>
<path d="M26.456 7.456c0 1.060-0.859 1.919-1.919 1.919s-1.919-0.859-1.919-1.919c0-1.060 0.859-1.919 1.919-1.919s1.919 0.859 1.919 1.919z"></path>
</symbol>
<symbol id="icon-left" viewBox="0 0 32 32">
<path d="M5.817 17.331l11.004 11.003c0.34 0.341 0.512 0.741 0.515 1.2s-0.164 0.861-0.503 1.204c-0.34 0.344-0.741 0.514-1.204 0.51s-0.865-0.176-1.207-0.516l-13.9-13.9c-0.182-0.184-0.314-0.375-0.397-0.574s-0.124-0.41-0.124-0.633 0.042-0.434 0.124-0.631c0.083-0.198 0.215-0.389 0.397-0.572l13.912-13.912c0.352-0.34 0.755-0.509 1.208-0.509s0.851 0.17 1.191 0.509c0.34 0.348 0.509 0.75 0.509 1.204s-0.17 0.853-0.509 1.195l-11.015 11.015h24.405c0.488 0 0.896 0.162 1.224 0.485s0.491 0.729 0.491 1.219-0.164 0.895-0.491 1.219c-0.328 0.323-0.736 0.485-1.224 0.485h-24.405z"></path>
</symbol>
<symbol id="icon-logo" viewBox="0 0 33 32">
<path d="M16.687 20.398c-0.039-0.077-0.069-0.136-0.1-0.195-0.377-0.724-1.287-1.195-2.094-1.083-0.693 0.095-1.271 0.672-1.474 1.486-0.219 0.878-0.061 1.724 0.255 2.546 0.515 1.341 1.33 2.489 2.334 3.504 0.695 0.702 1.248 0.69 1.932-0.024 0.949-0.992 1.719-2.105 2.254-3.374 0.315-0.748 0.547-1.518 0.582-2.335 0.025-0.591-0.051-1.159-0.387-1.666-0.427-0.644-1.129-0.833-1.82-0.493-0.429 0.211-0.769 0.527-1.037 0.918-0.154 0.224-0.288 0.462-0.446 0.718zM30.054 24.168c-0.016 1.106-0.265 2.16-0.774 3.139-0.864 1.661-2.114 2.948-3.788 3.811-1.65 0.851-3.341 0.948-5.068 0.271-0.701-0.275-1.401-0.559-2.084-0.874-1.242-0.573-2.48-0.567-3.75-0.092-0.892 0.334-1.798 0.639-2.713 0.904-0.948 0.274-1.923 0.374-2.912 0.262-0.855-0.097-1.577-0.476-2.203-1.049-0.798-0.731-1.437-1.584-1.839-2.59-0.516-1.289-0.392-2.533 0.359-3.708 0.589-0.92 1.383-1.654 2.153-2.413 0.56-0.552 1.107-1.119 1.623-1.711 0.595-0.684 0.95-1.51 1.244-2.358 0.273-0.787 0.521-1.583 0.791-2.371 0.195-0.57 0.552-1.043 0.906-1.523 0.851-1.156 2.064-1.662 3.403-1.959 1.588-0.353 2.972 0.102 4.152 1.147 0.727 0.643 1.355 1.395 2.032 2.095 1.152 1.192 2.374 2.305 3.743 3.246 0.681 0.468 1.397 0.888 2.072 1.363 0.967 0.681 1.783 1.506 2.28 2.603 0.261 0.574 0.364 1.183 0.373 1.81z"></path>
<path d="M14.463 7.77c0.003 0.885-0.154 1.841-0.574 2.739-0.449 0.961-1.098 1.72-2.167 2.016-0.879 0.243-1.69 0.047-2.447-0.425-0.995-0.621-1.668-1.523-2.169-2.561-0.727-1.506-1.007-3.1-0.858-4.765 0.088-0.984 0.366-1.903 0.916-2.74 0.948-1.442 2.652-1.85 4.133-0.972 0.961 0.57 1.634 1.401 2.146 2.372 0.698 1.323 1.030 2.739 1.019 4.336z"></path>
<path d="M24.808 5.132c0.002 1.804-0.331 3.317-1.152 4.702-0.459 0.774-1.045 1.433-1.857 1.857-1.186 0.62-2.491 0.393-3.422-0.576-0.737-0.767-1.137-1.701-1.351-2.723-0.37-1.767-0.179-3.492 0.447-5.171 0.303-0.812 0.745-1.556 1.381-2.156 0.586-0.553 1.253-0.986 2.085-1.055 1.058-0.088 1.889 0.361 2.553 1.153 0.685 0.817 1.026 1.786 1.196 2.82 0.073 0.446 0.095 0.9 0.12 1.148z"></path>
<path d="M0 13.828c0.015-0.806 0.168-1.563 0.647-2.22 0.626-0.859 1.502-1.175 2.537-1.111 1.047 0.066 1.939 0.518 2.74 1.156 1.426 1.137 2.369 2.589 2.744 4.385 0.166 0.795 0.178 1.597-0.1 2.371-0.478 1.331-1.568 2.018-2.989 1.908-0.884-0.068-1.662-0.422-2.376-0.925-1.539-1.085-2.53-2.559-3.031-4.361-0.108-0.387-0.118-0.801-0.173-1.203z"></path>
<path d="M32.376 11.314c-0.238 2.502-1.256 4.436-3.231 5.83-0.548 0.387-1.165 0.611-1.838 0.679-1.139 0.115-2.174-0.526-2.602-1.623-0.376-0.964-0.354-1.951-0.118-2.933 0.455-1.89 1.471-3.417 3.068-4.536 0.707-0.495 1.509-0.698 2.371-0.626 1.002 0.084 1.85 0.836 2.143 1.942 0.118 0.447 0.152 0.917 0.207 1.267z"></path>
</symbol>
<symbol id="icon-plus" viewBox="0 0 32 32">
<path d="M13.435 17.082h-11.618c-0.513 0-0.944-0.176-1.293-0.527s-0.524-0.784-0.524-1.3c0-0.515 0.175-0.945 0.524-1.29s0.78-0.517 1.293-0.517h11.618v-11.618c0-0.512 0.176-0.945 0.527-1.299s0.784-0.531 1.3-0.531c0.515 0 0.945 0.177 1.29 0.531s0.517 0.787 0.517 1.299v11.618h11.618c0.512 0 0.945 0.176 1.299 0.527s0.531 0.784 0.531 1.3c0 0.515-0.177 0.945-0.531 1.29s-0.787 0.517-1.299 0.517h-11.618v11.618c0 0.513-0.176 0.944-0.527 1.293s-0.784 0.524-1.3 0.524c-0.515 0-0.945-0.174-1.29-0.524s-0.517-0.78-0.517-1.293v-11.618z"></path>
</symbol>
<symbol id="icon-right" viewBox="0 0 32 32">
<path d="M26.109 17.325h-24.405c-0.489 0-0.895-0.162-1.218-0.485s-0.485-0.73-0.485-1.219 0.162-0.895 0.485-1.219c0.323-0.323 0.729-0.485 1.218-0.485h24.405l-11.004-11.003c-0.34-0.34-0.512-0.74-0.517-1.202s0.163-0.863 0.504-1.204c0.341-0.343 0.742-0.512 1.204-0.508s0.865 0.176 1.207 0.515l13.9 13.9c0.182 0.184 0.314 0.375 0.397 0.574s0.125 0.41 0.125 0.633-0.042 0.433-0.125 0.631c-0.083 0.198-0.215 0.389-0.397 0.573l-13.912 13.9c-0.352 0.348-0.755 0.521-1.209 0.521s-0.851-0.175-1.191-0.524c-0.34-0.34-0.509-0.738-0.509-1.193s0.17-0.851 0.509-1.191l11.015-11.015z"></path>
</symbol>
</defs>
</svg>
